<?xml version="1.0" standalone="no"?>
<!DOCTYPE svg PUBLIC "-//W3C//DTD SVG 20010904//EN"
 "http://www.w3.org/TR/2001/REC-SVG-20010904/DTD/svg10.dtd">
<svg version="1.0" xmlns="http://www.w3.org/2000/svg"
 width="2080.000000pt" height="2080.000000pt" viewBox="0 0 2080.000000 2080.000000"
 preserveAspectRatio="xMidYMid meet">

<g transform="translate(0.000000,2080.000000) scale(0.100000,-0.100000)"
fill="#000000" stroke="none">
<path d="M3372 13520 c-21 -13 -41 -38 -54 -67 -18 -41 -19 -51 -8 -106 6 -34
34 -124 62 -202 98 -273 108 -325 148 -715 30 -307 151 -1761 147 -1779 -1 -9
-6 19 -10 62 -23 237 -120 668 -318 1404 -104 391 -129 470 -210 655 -32 76
-59 145 -59 155 0 39 -50 120 -103 171 -96 89 -163 104 -236 51 -50 -36 -75
-88 -68 -141 3 -21 39 -109 81 -195 75 -157 75 -158 85 -273 20 -220 24 -619
11 -1140 -7 -289 -15 -644 -19 -790 l-6 -265 -18 135 c-54 405 -155 855 -267
1192 -68 203 -96 265 -140 301 -81 69 -196 44 -238 -52 -24 -56 -26 -309 -7
-776 9 -225 20 -612 24 -860 6 -429 7 -452 27 -490 24 -46 89 -85 143 -85 20
0 54 10 75 23 92 52 104 129 82 551 -8 171 -14 311 -12 313 1 1 17 -100 35
-225 80 -552 104 -665 211 -982 57 -170 78 -250 120 -470 61 -319 79 -378 125
-419 66 -58 158 -55 217 7 54 58 56 95 23 341 -49 366 -53 404 -64 536 -14
167 -28 511 -41 945 -12 423 -25 1527 -17 1520 11 -11 155 -545 206 -768 49
-213 70 -341 97 -602 28 -278 51 -438 129 -900 151 -889 275 -1491 395 -1915
30 -106 53 -209 60 -275 16 -154 37 -269 75 -416 58 -228 93 -283 184 -292 64
-6 115 23 142 82 32 71 26 131 -48 421 -25 99 -49 200 -54 225 -5 25 -36 371
-69 770 -78 942 -91 1068 -150 1480 -70 491 -83 610 -145 1340 -13 162 -27
318 -30 345 -7 70 96 -299 145 -521 56 -255 127 -653 134 -759 8 -111 19 -145
67 -216 63 -94 83 -154 174 -542 65 -274 97 -376 128 -405 27 -26 98 -52 139
-52 69 0 151 70 164 139 11 56 -10 182 -90 536 -88 394 -101 461 -121 630 -15
133 -35 491 -34 625 l0 75 33 -120 c18 -66 54 -166 80 -223 26 -57 56 -140 67
-185 10 -45 27 -111 36 -146 29 -115 106 -172 211 -156 64 10 126 73 141 146
23 106 32 269 34 597 l2 332 20 -27 c36 -51 110 -125 146 -149 48 -30 132 -54
188 -54 56 0 101 26 137 77 47 68 154 267 170 317 36 106 1 202 -89 245 -82
40 -178 16 -234 -57 -24 -32 -28 -46 -28 -104 0 -37 -3 -64 -6 -60 -3 4 -53
74 -110 157 -162 234 -271 325 -393 333 -55 3 -65 1 -104 -27 -65 -48 -79 -79
-86 -190 -16 -237 -18 -258 -29 -226 -32 101 -126 333 -164 407 -50 97 -95
144 -149 154 -42 8 -101 -8 -138 -37 -55 -43 -58 -61 -70 -378 l-11 -293 -23
113 c-108 523 -315 1379 -377 1559 -130 373 -245 628 -299 661 -43 26 -130 26
-174 -1z m305 -2967 c-2 -16 -4 -5 -4 22 0 28 2 40 4 28 2 -13 2 -35 0 -50z
m10 -110 c-2 -16 -4 -5 -4 22 0 28 2 40 4 28 2 -13 2 -35 0 -50z m10 -105 c-2
-13 -4 -3 -4 22 0 25 2 35 4 23 2 -13 2 -33 0 -45z m10 -95 c-3 -10 -5 -2 -5
17 0 19 2 27 5 18 2 -10 2 -26 0 -35z m10 -85 c-3 -7 -5 -2 -5 12 0 14 2 19 5
13 2 -7 2 -19 0 -25z"/>
<path d="M11282 13130 c-287 -77 -495 -331 -562 -685 -6 -33 -14 -124 -17
-202 l-6 -143 -178 0 -179 0 0 -90 0 -90 180 0 180 0 0 -697 c0 -682 0 -698
-20 -739 -32 -64 -58 -77 -212 -99 l-38 -6 0 -59 0 -60 485 0 485 0 0 60 c0
67 5 64 -105 75 -138 14 -216 57 -234 129 -8 31 -11 251 -11 720 l0 676 235 0
235 0 0 90 0 90 -237 0 -236 0 6 223 c9 350 45 510 136 610 29 32 50 45 92 57
27 8 31 5 66 -48 48 -73 138 -163 185 -185 21 -10 60 -17 95 -17 115 0 168 58
168 186 0 97 -28 139 -122 186 -64 31 -73 33 -193 35 -99 2 -140 -1 -198 -17z"/>
<path d="M9623 13069 c-49 -24 -100 -83 -119 -137 -19 -54 -17 -150 5 -197 37
-81 126 -144 205 -145 138 -1 246 114 246 259 -1 105 -53 188 -142 225 -54 23
-144 20 -195 -5z"/>
<path d="M14145 13072 c-82 -38 -137 -131 -137 -231 0 -75 7 -99 52 -159 88
-121 270 -119 364 3 91 120 68 285 -52 370 -37 25 -54 30 -115 33 -54 2 -82
-2 -112 -16z"/>
<path d="M6660 12851 l0 -69 66 -7 c81 -8 184 -36 218 -59 14 -9 36 -35 48
-59 l23 -42 0 -1035 0 -1035 -23 -42 c-12 -24 -35 -49 -50 -57 -31 -16 -166
-46 -209 -46 -67 0 -73 -7 -73 -76 l0 -64 560 0 560 0 0 65 0 64 -32 5 c-252
39 -271 44 -304 93 -18 26 -19 56 -22 501 l-3 472 133 0 133 0 105 -137 c217
-284 433 -591 641 -910 l99 -153 360 0 360 0 0 65 c0 73 6 68 -105 80 -83 10
-151 37 -233 95 -82 58 -128 112 -362 430 -95 129 -240 324 -322 432 -81 109
-148 200 -148 203 0 3 5 5 10 5 24 0 220 84 280 119 186 111 297 256 336 442
21 99 14 259 -15 350 -60 188 -228 328 -471 394 -138 37 -300 45 -972 45
l-588 0 0 -69z m1213 -106 c181 -38 298 -136 359 -300 19 -51 22 -81 22 -205
0 -133 -2 -152 -27 -223 -63 -181 -185 -303 -362 -363 -72 -25 -97 -28 -262
-32 l-183 -4 0 571 0 571 193 0 c129 0 214 -5 260 -15z"/>
<path d="M13238 12119 c-29 -46 -64 -101 -77 -122 -13 -22 -27 -34 -34 -30 -7
3 -31 20 -55 36 -62 41 -196 102 -272 123 -50 14 -103 18 -230 19 -146 0 -174
-3 -240 -23 -147 -47 -271 -124 -388 -242 -117 -119 -194 -256 -238 -426 -23
-85 -26 -120 -27 -254 0 -173 15 -276 63 -416 123 -364 435 -590 785 -571 160
9 278 57 421 175 35 28 66 52 69 52 3 0 5 -170 3 -377 -3 -342 -5 -381 -21
-411 -31 -57 -92 -82 -239 -97 l-58 -6 0 -60 0 -59 500 0 500 0 0 60 c0 54 -2
60 -22 64 -13 3 -54 10 -91 17 -98 18 -165 55 -191 104 -21 40 -21 44 -21
1075 0 738 4 1092 13 1234 7 109 11 201 8 204 -3 3 -28 7 -54 10 l-49 4 -55
-83z m-496 -130 c82 -27 134 -64 189 -135 97 -123 89 -63 89 -701 l0 -562 -62
-51 c-153 -124 -323 -158 -504 -102 -272 85 -417 409 -383 859 26 348 163 605
365 688 79 33 216 35 306 4z"/>
<path d="M9540 12104 c-107 -6 -216 -13 -242 -13 l-48 -1 0 -63 0 -63 71 -12
c71 -12 157 -48 193 -80 10 -9 28 -35 40 -57 21 -39 21 -48 24 -650 2 -440 0
-621 -8 -650 -21 -71 -69 -108 -155 -120 -112 -14 -105 -9 -105 -76 l0 -59
445 0 445 0 0 60 c0 57 -1 60 -27 65 -135 29 -180 49 -215 97 l-23 33 -3 789
c-2 555 -6 793 -13 803 -14 16 -104 15 -379 -3z"/>
<path d="M14055 12104 c-104 -7 -211 -13 -237 -13 l-48 -1 0 -64 0 -63 71 -12
c121 -20 213 -81 241 -158 10 -30 13 -168 13 -658 0 -602 -1 -621 -20 -654
-36 -61 -66 -74 -217 -96 l-38 -6 0 -59 0 -60 450 0 450 0 0 59 c0 62 -7 71
-54 71 -36 0 -118 31 -155 58 -63 47 -61 15 -61 862 0 513 -3 778 -10 791 -10
17 -21 19 -103 18 -51 -1 -177 -8 -282 -15z"/>
<path d="M8681 8524 c-67 -35 -106 -133 -82 -206 15 -45 70 -98 112 -107 74
-16 140 17 177 89 27 53 28 92 3 146 -36 79 -135 116 -210 78z"/>
<path d="M6600 8375 c0 -42 2 -45 28 -45 15 -1 56 -11 92 -23 50 -17 70 -30
87 -56 l23 -34 0 -686 c0 -525 -3 -692 -13 -710 -20 -40 -69 -62 -152 -68
l-75 -6 0 -44 0 -45 458 5 c497 5 503 5 673 67 243 88 439 280 513 501 38 114
49 207 43 354 -7 155 -31 257 -86 370 -94 191 -273 340 -496 414 -138 46 -209
51 -671 51 l-424 0 0 -45z m915 -89 c209 -68 367 -248 432 -493 22 -84 26
-120 27 -258 1 -177 -11 -267 -54 -387 -68 -193 -194 -316 -371 -363 -130 -35
-307 -27 -378 16 -18 11 -40 38 -51 62 -19 40 -20 73 -20 744 0 551 3 703 13
707 6 3 82 4 167 2 134 -3 166 -7 235 -30z"/>
<path d="M14480 8070 l0 -189 -112 -3 -113 -3 0 -55 0 -55 113 -3 112 -3 0
-458 c0 -498 1 -506 57 -579 14 -19 49 -45 77 -58 88 -41 254 -31 406 23 63
23 70 30 70 75 l0 39 -62 -8 c-93 -12 -190 -7 -224 10 -87 45 -94 84 -94 570
l0 387 175 0 175 0 0 60 0 60 -175 0 -175 0 0 190 0 190 -115 0 -115 0 0 -190z"/>
<path d="M10640 7909 c-89 -15 -190 -70 -254 -139 -45 -49 -60 -74 -77 -131
-55 -182 15 -350 185 -439 25 -14 46 -30 46 -36 0 -6 -19 -20 -42 -30 -101
-45 -159 -144 -139 -234 14 -64 53 -105 138 -147 l77 -38 -44 -9 c-148 -28
-226 -70 -275 -150 -27 -45 -30 -58 -30 -130 1 -95 20 -141 85 -200 47 -43
106 -70 200 -94 97 -24 398 -23 505 2 174 40 306 130 362 245 23 48 27 69 28
146 0 81 -3 97 -31 155 -50 105 -125 164 -239 190 -24 5 -136 15 -247 20 -274
14 -318 24 -346 77 -22 41 -15 82 22 119 l34 34 99 0 c179 0 290 38 391 134
78 73 112 148 112 246 0 92 -10 130 -54 203 l-35 57 145 0 144 0 0 60 0 60
-217 0 c-161 0 -232 4 -273 15 -72 20 -201 26 -270 14z m165 -90 c56 -15 120
-84 139 -149 55 -183 9 -378 -103 -437 -50 -26 -115 -30 -164 -10 -46 20 -102
86 -123 148 -26 73 -26 242 -1 315 39 113 137 165 252 133z m143 -1149 c197
-14 257 -57 257 -185 0 -129 -67 -216 -197 -257 -104 -32 -282 -32 -386 0
-123 39 -186 111 -185 214 1 79 30 134 91 176 92 62 163 71 420 52z"/>
<path d="M11975 7914 c-139 -22 -305 -124 -341 -211 -20 -47 -17 -122 5 -159
39 -65 140 -70 208 -11 l35 31 -6 76 c-3 41 -7 89 -9 105 -2 27 3 33 48 55 40
19 65 24 122 24 99 -1 155 -34 198 -118 26 -52 30 -71 33 -162 l4 -103 -37
-15 c-20 -9 -116 -43 -213 -77 -233 -80 -313 -119 -378 -184 -67 -67 -88 -131
-82 -249 3 -66 10 -91 34 -135 104 -193 412 -203 617 -20 30 27 57 49 60 49 3
0 8 -12 12 -27 11 -49 52 -100 97 -122 61 -29 170 -28 258 2 63 21 65 23 68
58 l3 37 -72 4 c-67 4 -73 6 -105 41 l-34 37 0 389 c0 360 -1 394 -20 453 -37
119 -101 180 -225 213 -62 16 -227 27 -280 19z m254 -1040 c-23 -23 -64 -55
-93 -71 -45 -25 -61 -28 -138 -28 -72 0 -91 4 -114 21 -54 40 -68 70 -72 150
-9 172 76 258 348 355 l105 37 3 -211 2 -211 -41 -42z"/>
<path d="M13543 7905 c-85 -19 -147 -55 -232 -132 l-71 -65 0 85 c0 56 -4 88
-12 94 -10 8 -254 -2 -410 -16 -5 -1 -8 -18 -8 -39 l0 -38 59 -12 c71 -15 114
-51 130 -108 7 -25 11 -178 11 -432 0 -432 -2 -447 -59 -476 -16 -9 -40 -16
-53 -16 -55 0 -68 -10 -68 -51 l0 -39 300 0 300 0 0 39 c0 39 0 39 -50 50 -28
6 -64 18 -80 26 -59 31 -60 38 -60 449 l0 374 51 56 c62 68 133 104 220 112
113 11 186 -30 230 -128 24 -53 24 -54 24 -433 0 -346 -2 -383 -17 -408 -18
-26 -52 -40 -130 -52 -37 -6 -38 -7 -38 -45 l0 -40 300 0 300 0 0 39 c0 39 0
39 -50 50 -57 12 -95 34 -113 65 -9 15 -14 136 -17 426 -6 447 -8 460 -73 556
-66 99 -228 145 -384 109z"/>
<path d="M15635 7914 c-139 -22 -305 -124 -341 -211 -20 -47 -17 -122 5 -159
39 -65 140 -70 208 -11 l35 31 -6 76 c-3 41 -7 89 -9 105 -2 27 3 33 48 55 40
19 65 24 122 24 99 -1 155 -34 198 -118 26 -52 30 -71 33 -162 l4 -103 -37
-15 c-20 -9 -116 -43 -213 -77 -233 -80 -313 -119 -378 -184 -67 -67 -88 -131
-82 -249 3 -66 10 -91 34 -135 104 -193 412 -203 617 -20 30 27 57 49 60 49 3
0 8 -12 12 -27 11 -49 52 -100 97 -122 61 -29 170 -28 258 2 63 21 65 23 68
58 l3 37 -72 4 c-67 4 -73 6 -105 41 l-34 37 0 389 c0 360 -1 394 -20 453 -37
119 -101 180 -225 213 -62 16 -227 27 -280 19z m254 -1040 c-23 -23 -64 -55
-93 -71 -45 -25 -61 -28 -138 -28 -72 0 -91 4 -114 21 -54 40 -68 70 -72 150
-9 172 76 258 348 355 l105 37 3 -211 2 -211 -41 -42z"/>
<path d="M17920 7905 c-180 -41 -319 -162 -320 -278 0 -115 90 -168 198 -116
66 32 78 69 59 173 -8 45 -12 85 -10 90 15 23 101 49 168 50 158 0 235 -95
235 -290 0 -79 -3 -95 -17 -103 -10 -5 -106 -39 -213 -76 -107 -37 -228 -83
-268 -102 -142 -70 -201 -150 -210 -289 -16 -238 172 -377 430 -320 85 19 171
66 235 128 24 23 44 40 46 37 2 -2 10 -20 17 -39 23 -56 75 -106 125 -120 55
-15 169 -9 243 14 51 17 52 17 52 56 l0 40 -50 0 c-67 0 -115 21 -141 62 -20
32 -21 40 -16 381 3 202 2 375 -4 410 -5 34 -24 91 -42 127 -39 79 -91 121
-182 149 -89 28 -250 35 -335 16z m332 -784 l-3 -211 -42 -41 c-63 -62 -148
-99 -225 -99 -132 0 -192 62 -192 199 0 106 72 206 192 267 56 29 260 104 268
99 3 -2 4 -98 2 -214z"/>
<path d="M9869 7895 c-70 -25 -105 -49 -176 -118 l-73 -70 0 91 c0 50 -3 93
-7 95 -6 3 -390 -18 -410 -22 -2 -1 -3 -18 -3 -40 0 -38 1 -39 43 -45 55 -8
102 -37 127 -78 19 -32 20 -52 20 -460 l0 -426 -26 -31 c-16 -20 -38 -32 -62
-36 -97 -16 -92 -13 -92 -56 l0 -39 325 0 325 0 0 40 c0 22 -3 40 -6 40 -32 0
-155 25 -177 37 -55 28 -57 48 -57 454 l0 371 68 67 c48 49 81 72 116 84 83
28 87 26 80 -40 -3 -38 0 -66 8 -82 19 -36 71 -63 122 -63 84 -2 130 54 130
157 1 118 -65 186 -180 184 -32 0 -75 -6 -95 -14z"/>
<path d="M17134 7892 c-62 -22 -140 -78 -194 -139 l-40 -46 0 85 c0 57 -4 89
-12 95 -10 8 -254 -2 -410 -16 -5 -1 -8 -18 -8 -40 0 -37 1 -39 40 -44 59 -8
112 -38 135 -77 19 -33 20 -54 23 -440 2 -278 0 -417 -8 -443 -12 -42 -58 -77
-100 -77 -57 0 -70 -10 -70 -51 l0 -39 320 0 320 0 0 39 c0 38 -1 39 -42 46
-103 15 -138 27 -163 57 l-25 30 0 382 0 383 29 40 c49 68 152 132 212 133 25
0 26 -1 19 -46 -10 -64 -2 -90 37 -124 32 -29 62 -36 122 -31 67 6 106 74 99
175 -4 70 -21 102 -71 140 -39 29 -144 33 -213 8z"/>
<path d="M8645 7885 c-104 -8 -196 -14 -202 -14 -8 -1 -13 -16 -13 -41 0 -32
4 -40 18 -40 43 0 126 -34 160 -65 l37 -33 3 -435 3 -435 -26 -30 c-14 -17
-38 -33 -53 -36 -15 -2 -44 -7 -64 -11 -36 -6 -38 -8 -38 -45 l0 -40 295 0
295 0 0 40 c0 35 -3 40 -27 46 -64 13 -115 38 -131 62 -15 24 -17 78 -22 557
-5 521 -5 530 -25 531 -11 1 -105 -4 -210 -11z"/>
</g>
</svg>
